<svg width="392" height="339" viewBox="0 0 392 339" fill="none" xmlns="http://www.w3.org/2000/svg">
<g clip-path="url(#clip0_23890_225290)">
<rect width="392" height="339" fill="#F3F4F5"/>
<path d="M-34.0677 119.158L-42.5877 104.401L-31.1146 97.7772L-29.4346 100.687L-37.3744 105.271L-35.8384 107.932L-31.1618 105.232L-29.4458 108.204L-34.1224 110.904L-32.2984 114.063L-23.652 109.071L-21.888 112.126L-34.0677 119.158ZM-19.5957 110.803L-28.1157 96.0458L-24.5823 94.0058L-20.9703 100.262L-18.9704 90.7658L-14.6057 88.2458L-16.889 98.931L-5.73232 102.799L-10.3881 105.487L-19.8063 102.278L-16.0623 108.763L-19.5957 110.803ZM-4.12898 101.873L-12.649 87.1161L0.403755 79.5801L8.92376 94.3372L5.39037 96.3772L-1.34163 84.717L-7.3276 88.173L-0.595596 99.8332L-4.12898 101.873Z" fill="white"/>
<path d="M38.6783 77.1583L30.1583 62.4012L41.6314 55.7772L43.3114 58.6871L35.3717 63.2711L36.9077 65.9315L41.5843 63.2315L43.3003 66.2037L38.6237 68.9037L40.4477 72.063L49.0941 67.071L50.8581 70.1263L38.6783 77.1583ZM53.1504 68.8028L44.6304 54.0458L48.1638 52.0058L51.7758 58.2619L53.7757 48.7658L58.1404 46.2458L55.8571 56.931L67.0138 60.7988L62.358 63.4868L52.9398 60.278L56.6838 66.7628L53.1504 68.8028ZM68.6171 59.8732L60.0971 45.1161L73.1498 37.5801L81.6698 52.3372L78.1365 54.3772L71.4045 42.717L65.4185 46.173L72.1505 57.8332L68.6171 59.8732Z" fill="white"/>
<path d="M111.424 35.1583L102.904 20.4012L114.378 13.7772L116.058 16.6871L108.118 21.2711L109.654 23.9315L114.33 21.2315L116.046 24.2037L111.37 26.9037L113.194 30.063L121.84 25.071L123.604 28.1263L111.424 35.1583ZM125.897 26.8028L117.377 12.0458L120.91 10.0058L124.522 16.2619L126.522 6.76577L130.887 4.24577L128.603 14.931L139.76 18.7988L135.104 21.4868L125.686 18.278L129.43 24.7628L125.897 26.8028ZM141.363 17.8732L132.843 3.11608L145.896 -4.41992L154.416 10.3372L150.883 12.3772L144.151 0.716989L138.165 4.17299L144.897 15.8332L141.363 17.8732Z" fill="white"/>
<path d="M14.9323 204.029L6.41225 189.272L17.8854 182.648L19.5654 185.558L11.6256 190.142L13.1616 192.802L17.8382 190.102L19.5542 193.074L14.8776 195.774L16.7016 198.933L25.348 193.941L27.112 196.997L14.9323 204.029ZM29.4043 195.673L20.8843 180.916L24.4177 178.876L28.0297 185.132L30.0296 175.636L34.3943 173.116L32.111 183.801L43.2677 187.669L38.6119 190.357L29.1937 187.149L32.9377 193.633L29.4043 195.673ZM44.871 186.744L36.351 171.987L49.4038 164.451L57.9238 179.208L54.3904 181.248L47.6584 169.587L41.6724 173.043L48.4044 184.704L44.871 186.744Z" fill="white"/>
<path d="M87.6783 162.029L79.1583 147.272L90.6314 140.648L92.3114 143.558L84.3717 148.142L85.9077 150.802L90.5843 148.102L92.3003 151.074L87.6237 153.774L89.4477 156.933L98.0941 151.941L99.8581 154.997L87.6783 162.029ZM102.15 153.673L93.6304 138.916L97.1638 136.876L100.776 143.132L102.776 133.636L107.14 131.116L104.857 141.801L116.014 145.669L111.358 148.357L101.94 145.149L105.684 151.633L102.15 153.673ZM117.617 144.744L109.097 129.987L122.15 122.451L130.67 137.208L127.136 139.248L120.404 127.587L114.418 131.043L121.15 142.704L117.617 144.744Z" fill="white"/>
<path d="M160.424 120.029L151.904 105.272L163.378 98.6477L165.058 101.558L157.118 106.142L158.654 108.802L163.33 106.102L165.046 109.074L160.37 111.774L162.194 114.933L170.84 109.941L172.604 112.997L160.424 120.029ZM174.897 111.673L166.377 96.9163L169.91 94.8763L173.522 101.132L175.522 91.6363L179.887 89.1163L177.603 99.8015L188.76 103.669L184.104 106.357L174.686 103.149L178.43 109.633L174.897 111.673ZM190.363 102.744L181.843 87.9866L194.896 80.4506L203.416 95.2076L199.883 97.2476L193.151 85.5875L187.165 89.0435L193.897 100.704L190.363 102.744Z" fill="white"/>
<path d="M233.171 78.0288L224.651 63.2717L236.124 56.6477L237.804 59.5576L229.864 64.1416L231.4 66.802L236.076 64.102L237.792 67.0742L233.116 69.7742L234.94 72.9335L243.586 67.9415L245.35 70.9968L233.171 78.0288ZM247.643 69.6733L239.123 54.9163L242.656 52.8763L246.268 59.1324L248.268 49.6363L252.633 47.1163L250.349 57.8015L261.506 61.6693L256.85 64.3573L247.432 61.1485L251.176 67.6333L247.643 69.6733ZM263.109 60.7436L254.589 45.9866L267.642 38.4506L276.162 53.2076L272.629 55.2476L265.897 43.5875L259.911 47.0435L266.643 58.7036L263.109 60.7436Z" fill="white"/>
<path d="M305.917 36.0288L297.397 21.2717L308.87 14.6477L310.55 17.5576L302.61 22.1416L304.146 24.802L308.823 22.102L310.539 25.0742L305.862 27.7742L307.686 30.9335L316.332 25.9415L318.096 28.9968L305.917 36.0288ZM320.389 27.6733L311.869 12.9163L315.402 10.8763L319.014 17.1324L321.014 7.63625L325.379 5.11625L323.095 15.8015L334.252 19.6693L329.596 22.3573L320.178 19.1485L323.922 25.6333L320.389 27.6733ZM335.855 18.7436L327.335 3.98657L340.388 -3.54943L348.908 11.2076L345.375 13.2476L338.643 1.58747L332.657 5.04347L339.389 16.7036L335.855 18.7436Z" fill="white"/>
<path d="M-8.81409 330.899L-17.3341 316.142L-5.86098 309.518L-4.18098 312.428L-12.1207 317.012L-10.5847 319.672L-5.90817 316.972L-4.19216 319.945L-8.8687 322.645L-7.0447 325.804L1.6017 320.812L3.3657 323.867L-8.81409 330.899ZM5.65801 322.544L-2.86199 307.787L0.671393 305.747L4.28339 312.003L6.28324 302.507L10.648 299.987L8.3647 310.672L19.5213 314.54L14.8656 317.228L5.44739 314.019L9.19139 320.504L5.65801 322.544ZM21.1247 313.614L12.6047 298.857L25.6574 291.321L34.1774 306.078L30.644 308.118L23.912 296.458L17.9261 299.914L24.6581 311.574L21.1247 313.614Z" fill="white"/>
<path d="M63.9323 288.899L55.4123 274.142L66.8854 267.518L68.5654 270.428L60.6256 275.012L62.1616 277.672L66.8382 274.972L68.5542 277.945L63.8776 280.645L65.7016 283.804L74.348 278.812L76.112 281.867L63.9323 288.899ZM78.4043 280.544L69.8843 265.787L73.4177 263.747L77.0297 270.003L79.0296 260.507L83.3943 257.987L81.111 268.672L92.2677 272.54L87.6119 275.228L78.1937 272.019L81.9377 278.504L78.4043 280.544ZM93.871 271.614L85.351 256.857L98.4038 249.321L106.924 264.078L103.39 266.118L96.6584 254.458L90.6724 257.914L97.4044 269.574L93.871 271.614Z" fill="white"/>
<path d="M136.678 246.899L128.158 232.142L139.631 225.518L141.311 228.428L133.372 233.012L134.908 235.672L139.584 232.972L141.3 235.945L136.624 238.645L138.448 241.804L147.094 236.812L148.858 239.867L136.678 246.899ZM151.15 238.544L142.63 223.787L146.164 221.747L149.776 228.003L151.776 218.507L156.14 215.987L153.857 226.672L165.014 230.54L160.358 233.228L150.94 230.019L154.684 236.504L151.15 238.544ZM166.617 229.614L158.097 214.857L171.15 207.321L179.67 222.078L176.136 224.118L169.404 212.458L163.418 215.914L170.15 227.574L166.617 229.614Z" fill="white"/>
<path d="M209.424 204.899L200.904 190.142L212.378 183.518L214.058 186.428L206.118 191.012L207.654 193.672L212.33 190.972L214.046 193.945L209.37 196.645L211.194 199.804L219.84 194.812L221.604 197.867L209.424 204.899ZM223.897 196.544L215.377 181.787L218.91 179.747L222.522 186.003L224.522 176.507L228.887 173.987L226.603 184.672L237.76 188.54L233.104 191.228L223.686 188.019L227.43 194.504L223.897 196.544ZM239.363 187.614L230.843 172.857L243.896 165.321L252.416 180.078L248.883 182.118L242.151 170.458L236.165 173.914L242.897 185.574L239.363 187.614Z" fill="white"/>
<path d="M282.171 162.899L273.651 148.142L285.124 141.518L286.804 144.428L278.864 149.012L280.4 151.672L285.076 148.972L286.792 151.945L282.116 154.645L283.94 157.804L292.586 152.812L294.35 155.867L282.171 162.899ZM296.643 154.544L288.123 139.787L291.656 137.747L295.268 144.003L297.268 134.507L301.633 131.987L299.349 142.672L310.506 146.54L305.85 149.228L296.432 146.019L300.176 152.504L296.643 154.544ZM312.109 145.614L303.589 130.857L316.642 123.321L325.162 138.078L321.629 140.118L314.897 128.458L308.911 131.914L315.643 143.574L312.109 145.614Z" fill="white"/>
<path d="M354.917 120.899L346.397 106.142L357.87 99.5182L359.55 102.428L351.61 107.012L353.146 109.672L357.823 106.972L359.539 109.945L354.862 112.645L356.686 115.804L365.333 110.812L367.097 113.867L354.917 120.899ZM369.389 112.544L360.869 97.7867L364.402 95.7467L368.014 102.003L370.014 92.5067L374.379 89.9867L372.096 100.672L383.252 104.54L378.597 107.228L369.178 104.019L372.922 110.504L369.389 112.544ZM384.856 103.614L376.336 88.857L389.388 81.321L397.908 96.0781L394.375 98.1181L387.643 86.458L381.657 89.914L388.389 101.574L384.856 103.614Z" fill="white"/>
<path d="M112.932 373.77L104.412 359.013L115.885 352.389L117.565 355.299L109.626 359.883L111.162 362.543L115.838 359.843L117.554 362.815L112.878 365.515L114.702 368.674L123.348 363.682L125.112 366.738L112.932 373.77ZM127.404 365.414L118.884 350.657L122.418 348.617L126.03 354.873L128.03 345.377L132.394 342.857L130.111 353.542L141.268 357.41L136.612 360.098L127.194 356.889L130.938 363.374L127.404 365.414ZM142.871 356.485L134.351 341.728L147.404 334.192L155.924 348.949L152.39 350.989L145.658 339.328L139.672 342.784L146.404 354.445L142.871 356.485Z" fill="white"/>
<path d="M185.678 331.77L177.158 317.013L188.631 310.389L190.311 313.299L182.372 317.883L183.908 320.543L188.584 317.843L190.3 320.815L185.624 323.515L187.448 326.674L196.094 321.682L197.858 324.738L185.678 331.77ZM200.15 323.414L191.63 308.657L195.164 306.617L198.776 312.873L200.776 303.377L205.14 300.857L202.857 311.542L214.014 315.41L209.358 318.098L199.94 314.889L203.684 321.374L200.15 323.414ZM215.617 314.485L207.097 299.728L220.15 292.192L228.67 306.949L225.136 308.989L218.404 297.328L212.418 300.784L219.15 312.445L215.617 314.485Z" fill="white"/>
<path d="M258.424 289.77L249.904 275.013L261.378 268.389L263.058 271.299L255.118 275.883L256.654 278.543L261.33 275.843L263.046 278.815L258.37 281.515L260.194 284.674L268.84 279.682L270.604 282.738L258.424 289.77ZM272.897 281.414L264.377 266.657L267.91 264.617L271.522 270.873L273.522 261.377L277.887 258.857L275.603 269.542L286.76 273.41L282.104 276.098L272.686 272.889L276.43 279.374L272.897 281.414ZM288.363 272.485L279.843 257.728L292.896 250.192L301.416 264.949L297.883 266.989L291.151 255.328L285.165 258.784L291.897 270.445L288.363 272.485Z" fill="white"/>
<path d="M331.171 247.77L322.651 233.013L334.124 226.389L335.804 229.299L327.864 233.883L329.4 236.543L334.077 233.843L335.793 236.815L331.116 239.515L332.94 242.674L341.587 237.682L343.351 240.738L331.171 247.77ZM345.643 239.414L337.123 224.657L340.656 222.617L344.268 228.873L346.268 219.377L350.633 216.857L348.35 227.542L359.506 231.41L354.85 234.098L345.432 230.889L349.176 237.374L345.643 239.414ZM361.11 230.485L352.59 215.728L365.642 208.192L374.162 222.949L370.629 224.989L363.897 213.328L357.911 216.784L364.643 228.445L361.11 230.485Z" fill="white"/>
<path d="M307.424 374.64L298.904 359.883L310.378 353.259L312.058 356.169L304.118 360.753L305.654 363.413L310.33 360.713L312.046 363.686L307.37 366.386L309.194 369.545L317.84 364.553L319.604 367.608L307.424 374.64ZM321.897 366.285L313.377 351.528L316.91 349.488L320.522 355.744L322.522 346.248L326.887 343.728L324.603 354.413L335.76 358.281L331.104 360.969L321.686 357.76L325.43 364.245L321.897 366.285ZM337.363 357.355L328.843 342.598L341.896 335.062L350.416 349.819L346.883 351.859L340.151 340.199L334.165 343.655L340.897 355.315L337.363 357.355Z" fill="white"/>
<path d="M380.171 332.64L371.651 317.883L383.124 311.259L384.804 314.169L376.864 318.753L378.4 321.413L383.077 318.713L384.793 321.686L380.116 324.386L381.94 327.545L390.587 322.553L392.351 325.608L380.171 332.64ZM394.643 324.285L386.123 309.528L389.656 307.488L393.268 313.744L395.268 304.248L399.633 301.728L397.35 312.413L408.506 316.281L403.85 318.969L394.432 315.76L398.176 322.245L394.643 324.285ZM410.11 315.355L401.59 300.598L414.642 293.062L423.162 307.819L419.629 309.859L412.897 298.199L406.911 301.655L413.643 313.315L410.11 315.355Z" fill="white"/>
<path d="M-22.1947 55.7231L-30.7147 40.966L-19.2416 34.342L-17.5616 37.2518L-25.5013 41.8358L-23.9653 44.4963L-19.2888 41.7963L-17.5728 44.7685L-22.2493 47.4685L-20.4253 50.6277L-11.7789 45.6357L-10.0149 48.6911L-22.1947 55.7231ZM-7.72261 47.3676L-16.2426 32.6105L-12.7092 30.5705L-9.09722 36.8267L-7.09738 27.3305L-2.73261 24.8105L-5.01591 35.4957L6.14073 39.3636L1.48498 42.0516L-7.93322 38.8428L-4.18922 45.3276L-7.72261 47.3676ZM7.74407 38.4379L-0.775933 23.6808L12.2768 16.1448L20.7968 30.9019L17.2634 32.9419L10.5314 21.2817L4.54545 24.7377L11.2775 36.3979L7.74407 38.4379Z" fill="white"/>
<path d="M50.5514 13.7231L42.0314 -1.034L53.5045 -7.658L55.1845 -4.74816L47.2448 -0.164158L48.7808 2.49627L53.4573 -0.203728L55.1733 2.76847L50.4968 5.46847L52.3208 8.62773L60.9672 3.63573L62.7312 6.69107L50.5514 13.7231ZM65.0235 5.3676L56.5035 -9.38947L60.0369 -11.4295L63.6489 -5.1733L65.6487 -14.6695L70.0135 -17.1895L67.7302 -6.50427L78.8868 -2.6364L74.2311 0.0516015L64.8129 -3.1572L68.5569 3.3276L65.0235 5.3676ZM80.4902 -3.56209L71.9702 -18.3192L85.0229 -25.8552L93.5429 -11.0981L90.0095 -9.05809L83.2775 -20.7183L77.2915 -17.2623L84.0235 -5.60209L80.4902 -3.56209Z" fill="white"/>
<path d="M26.8053 140.594L18.2853 125.836L29.7584 119.212L31.4384 122.122L23.4987 126.706L25.0347 129.367L29.7112 126.667L31.4272 129.639L26.7507 132.339L28.5747 135.498L37.2211 130.506L38.9851 133.562L26.8053 140.594ZM41.2774 132.238L32.7574 117.481L36.2908 115.441L39.9028 121.697L41.9026 112.201L46.2674 109.681L43.9841 120.366L55.1407 124.234L50.485 126.922L41.0668 123.713L44.8108 130.198L41.2774 132.238ZM56.7441 123.308L48.2241 108.551L61.2768 101.015L69.7968 115.772L66.2634 117.812L59.5314 106.152L53.5455 109.608L60.2775 121.268L56.7441 123.308Z" fill="white"/>
<path d="M99.5514 98.5936L91.0314 83.8365L102.504 77.2125L104.184 80.1223L96.2448 84.7063L97.7808 87.3668L102.457 84.6668L104.173 87.639L99.4968 90.339L101.321 93.4982L109.967 88.5062L111.731 91.5616L99.5514 98.5936ZM114.023 90.2381L105.503 75.481L109.037 73.441L112.649 79.6972L114.649 70.201L119.013 67.681L116.73 78.3662L127.887 82.2341L123.231 84.9221L113.813 81.7133L117.557 88.1981L114.023 90.2381ZM129.49 81.3084L120.97 66.5513L134.023 59.0153L142.543 73.7724L139.01 75.8124L132.278 64.1522L126.292 67.6082L133.024 79.2684L129.49 81.3084Z" fill="white"/>
<path d="M172.297 56.5936L163.777 41.8365L175.251 35.2125L176.931 38.1223L168.991 42.7063L170.527 45.3668L175.203 42.6668L176.919 45.639L172.243 48.339L174.067 51.4982L182.713 46.5062L184.477 49.5616L172.297 56.5936ZM186.77 48.2381L178.25 33.481L181.783 31.441L185.395 37.6972L187.395 28.201L191.76 25.681L189.476 36.3662L200.633 40.2341L195.977 42.9221L186.559 39.7133L190.303 46.1981L186.77 48.2381ZM202.236 39.3084L193.716 24.5513L206.769 17.0153L215.289 31.7724L211.756 33.8124L205.024 22.1522L199.038 25.6082L205.77 37.2684L202.236 39.3084Z" fill="white"/>
<path d="M245.044 14.5936L236.524 -0.163519L247.997 -6.78752L249.677 -3.87767L241.737 0.706326L243.273 3.36676L247.95 0.666756L249.666 3.63896L244.989 6.33896L246.813 9.49822L255.459 4.50622L257.223 7.56155L245.044 14.5936ZM259.516 6.23809L250.996 -8.51899L254.529 -10.559L258.141 -4.30282L260.141 -13.799L264.506 -16.319L262.222 -5.63379L273.379 -1.76591L268.723 0.922085L259.305 -2.28671L263.049 4.19809L259.516 6.23809ZM274.982 -2.6916L266.462 -17.4487L279.515 -24.9847L288.035 -10.2276L284.502 -8.1876L277.77 -19.8478L271.784 -16.3918L278.516 -4.7316L274.982 -2.6916Z" fill="white"/>
<path d="M3.05896 267.464L-5.46104 252.707L6.01206 246.083L7.69206 248.993L-0.247656 253.577L1.28834 256.237L5.96488 253.537L7.68088 256.509L3.00434 259.209L4.82834 262.369L13.4747 257.377L15.2387 260.432L3.05896 267.464ZM17.5311 259.109L9.01106 244.351L12.5444 242.311L16.1564 248.568L18.1563 239.071L22.5211 236.551L20.2377 247.237L31.3944 251.105L26.7386 253.793L17.3204 250.584L21.0644 257.069L17.5311 259.109ZM32.9977 250.179L24.4777 235.422L37.5305 227.886L46.0505 242.643L42.5171 244.683L35.7851 233.023L29.7991 236.479L36.5311 248.139L32.9977 250.179Z" fill="white"/>
<path d="M75.8053 225.464L67.2853 210.707L78.7584 204.083L80.4384 206.993L72.4987 211.577L74.0347 214.237L78.7112 211.537L80.4272 214.509L75.7507 217.209L77.5747 220.369L86.2211 215.377L87.9851 218.432L75.8053 225.464ZM90.2774 217.109L81.7574 202.351L85.2908 200.311L88.9028 206.568L90.9026 197.071L95.2674 194.551L92.9841 205.237L104.141 209.105L99.485 211.793L90.0668 208.584L93.8108 215.069L90.2774 217.109ZM105.744 208.179L97.2241 193.422L110.277 185.886L118.797 200.643L115.263 202.683L108.531 191.023L102.545 194.479L109.277 206.139L105.744 208.179Z" fill="white"/>
<path d="M148.551 183.464L140.031 168.707L151.504 162.083L153.184 164.993L145.245 169.577L146.781 172.237L151.457 169.537L153.173 172.509L148.497 175.209L150.321 178.369L158.967 173.377L160.731 176.432L148.551 183.464ZM163.023 175.109L154.503 160.351L158.037 158.311L161.649 164.568L163.649 155.071L168.013 152.551L165.73 163.237L176.887 167.105L172.231 169.793L162.813 166.584L166.557 173.069L163.023 175.109ZM178.49 166.179L169.97 151.422L183.023 143.886L191.543 158.643L188.01 160.683L181.278 149.023L175.292 152.479L182.024 164.139L178.49 166.179Z" fill="white"/>
<path d="M221.297 141.464L212.777 126.707L224.251 120.083L225.931 122.993L217.991 127.577L219.527 130.237L224.203 127.537L225.919 130.509L221.243 133.209L223.067 136.369L231.713 131.377L233.477 134.432L221.297 141.464ZM235.77 133.109L227.25 118.351L230.783 116.311L234.395 122.568L236.395 113.071L240.76 110.551L238.476 121.237L249.633 125.105L244.977 127.793L235.559 124.584L239.303 131.069L235.77 133.109ZM251.236 124.179L242.716 109.422L255.769 101.886L264.289 116.643L260.756 118.683L254.024 107.023L248.038 110.479L254.77 122.139L251.236 124.179Z" fill="white"/>
<path d="M294.044 99.464L285.524 84.707L296.997 78.083L298.677 80.9928L290.737 85.5768L292.273 88.2372L296.95 85.5372L298.666 88.5094L293.989 91.2094L295.813 94.3687L304.459 89.3767L306.223 92.432L294.044 99.464ZM308.516 91.1086L299.996 76.3515L303.529 74.3115L307.141 80.5677L309.141 71.0715L313.506 68.5515L311.222 79.2367L322.379 83.1046L317.723 85.7926L308.305 82.5838L312.049 89.0686L308.516 91.1086ZM323.982 82.1789L315.462 67.4218L328.515 59.8858L337.035 74.6429L333.502 76.6829L326.77 65.0227L320.784 68.4787L327.516 80.1389L323.982 82.1789Z" fill="white"/>
<path d="M366.79 57.464L358.27 42.707L369.743 36.083L371.423 38.9928L363.483 43.5768L365.019 46.2372L369.696 43.5372L371.412 46.5094L366.735 49.2094L368.559 52.3687L377.206 47.3767L378.97 50.432L366.79 57.464ZM381.262 49.1086L372.742 34.3515L376.275 32.3115L379.887 38.5677L381.887 29.0715L386.252 26.5515L383.969 37.2367L395.125 41.1046L390.47 43.7926L381.051 40.5838L384.795 47.0686L381.262 49.1086ZM396.729 40.1789L388.209 25.4218L401.261 17.8858L409.781 32.6429L406.248 34.6829L399.516 23.0227L393.53 26.4787L400.262 38.1389L396.729 40.1789Z" fill="white"/>
<path d="M52.059 352.335L43.539 337.578L55.0121 330.954L56.6921 333.863L48.7523 338.447L50.2883 341.108L54.9649 338.408L56.6809 341.38L52.0043 344.08L53.8283 347.239L62.4747 342.247L64.2387 345.303L52.059 352.335ZM66.5311 343.979L58.0111 329.222L61.5444 327.182L65.1564 333.438L67.1563 323.942L71.5211 321.422L69.2377 332.107L80.3944 335.975L75.7386 338.663L66.3204 335.454L70.0644 341.939L66.5311 343.979ZM81.9977 335.049L73.4777 320.292L86.5305 312.756L95.0505 327.513L91.5171 329.553L84.7851 317.893L78.7991 321.349L85.5311 333.009L81.9977 335.049Z" fill="white"/>
<path d="M124.805 310.335L116.285 295.578L127.758 288.954L129.438 291.863L121.499 296.447L123.035 299.108L127.711 296.408L129.427 299.38L124.751 302.08L126.575 305.239L135.221 300.247L136.985 303.303L124.805 310.335ZM139.277 301.979L130.757 287.222L134.291 285.182L137.903 291.438L139.903 281.942L144.267 279.422L141.984 290.107L153.141 293.975L148.485 296.663L139.067 293.454L142.811 299.939L139.277 301.979ZM154.744 293.049L146.224 278.292L159.277 270.756L167.797 285.513L164.263 287.553L157.531 275.893L151.545 279.349L158.277 291.009L154.744 293.049Z" fill="white"/>
<path d="M197.551 268.335L189.031 253.578L200.504 246.954L202.184 249.863L194.245 254.447L195.781 257.108L200.457 254.408L202.173 257.38L197.497 260.08L199.321 263.239L207.967 258.247L209.731 261.303L197.551 268.335ZM212.023 259.979L203.503 245.222L207.037 243.182L210.649 249.438L212.649 239.942L217.013 237.422L214.73 248.107L225.887 251.975L221.231 254.663L211.813 251.454L215.557 257.939L212.023 259.979ZM227.49 251.049L218.97 236.292L232.023 228.756L240.543 243.513L237.01 245.553L230.278 233.893L224.292 237.349L231.024 249.009L227.49 251.049Z" fill="white"/>
<path d="M270.297 226.335L261.777 211.578L273.251 204.954L274.931 207.863L266.991 212.447L268.527 215.108L273.203 212.408L274.919 215.38L270.243 218.08L272.067 221.239L280.713 216.247L282.477 219.303L270.297 226.335ZM284.77 217.979L276.25 203.222L279.783 201.182L283.395 207.438L285.395 197.942L289.76 195.422L287.476 206.107L298.633 209.975L293.977 212.663L284.559 209.454L288.303 215.939L284.77 217.979ZM300.236 209.049L291.716 194.292L304.769 186.756L313.289 201.513L309.756 203.553L303.024 191.893L297.038 195.349L303.77 207.009L300.236 209.049Z" fill="white"/>
<path d="M343.044 184.335L334.524 169.578L345.997 162.954L347.677 165.863L339.737 170.447L341.273 173.108L345.95 170.408L347.666 173.38L342.989 176.08L344.813 179.239L353.46 174.247L355.224 177.303L343.044 184.335ZM357.516 175.979L348.996 161.222L352.529 159.182L356.141 165.438L358.141 155.942L362.506 153.422L360.223 164.107L371.379 167.975L366.724 170.663L357.305 167.454L361.049 173.939L357.516 175.979ZM372.983 167.049L364.463 152.292L377.515 144.756L386.035 159.513L382.502 161.553L375.77 149.893L369.784 153.349L376.516 165.009L372.983 167.049Z" fill="white"/>
<path d="M246.551 353.205L238.031 338.448L249.504 331.824L251.184 334.734L243.245 339.318L244.781 341.978L249.457 339.278L251.173 342.25L246.497 344.95L248.321 348.11L256.967 343.118L258.731 346.173L246.551 353.205ZM261.023 344.85L252.503 330.093L256.037 328.053L259.649 334.309L261.649 324.813L266.013 322.293L263.73 332.978L274.887 336.846L270.231 339.534L260.813 336.325L264.557 342.81L261.023 344.85ZM276.49 335.92L267.97 321.163L281.023 313.627L289.543 328.384L286.01 330.424L279.278 318.764L273.292 322.22L280.024 333.88L276.49 335.92Z" fill="white"/>
<path d="M319.297 311.205L310.777 296.448L322.251 289.824L323.931 292.734L315.991 297.318L317.527 299.978L322.203 297.278L323.919 300.25L319.243 302.95L321.067 306.11L329.713 301.118L331.477 304.173L319.297 311.205ZM333.77 302.85L325.25 288.093L328.783 286.053L332.395 292.309L334.395 282.813L338.76 280.293L336.476 290.978L347.633 294.846L342.977 297.534L333.559 294.325L337.303 300.81L333.77 302.85ZM349.236 293.92L340.716 279.163L353.769 271.627L362.289 286.384L358.756 288.424L352.024 276.764L346.038 280.22L352.77 291.88L349.236 293.92Z" fill="white"/>
<path d="M392.044 269.205L383.524 254.448L394.997 247.824L396.677 250.734L388.737 255.318L390.273 257.978L394.95 255.278L396.666 258.25L391.989 260.95L393.813 264.11L402.46 259.118L404.224 262.173L392.044 269.205ZM406.516 260.85L397.996 246.093L401.529 244.053L405.141 250.309L407.141 240.813L411.506 238.293L409.223 248.978L420.379 252.846L415.724 255.534L406.305 252.325L410.049 258.81L406.516 260.85ZM421.983 251.92L413.463 237.163L426.515 229.627L435.035 244.384L431.502 246.424L424.77 234.764L418.784 238.22L425.516 249.88L421.983 251.92Z" fill="white"/>
</g>
<defs>
<clipPath id="clip0_23890_225290">
<rect width="392" height="339" fill="white"/>
</clipPath>
</defs>
</svg>
